<?xml version="1.0" encoding="UTF-8" standalone="no"?>
<!DOCTYPE svg PUBLIC "-//W3C//DTD SVG 1.1//EN"
 "http://www.w3.org/Graphics/SVG/1.1/DTD/svg11.dtd">
<!-- Generated by graphviz version 2.36.0 (20140111.2315)
 -->
<!-- Title: controllers_diagram Pages: 1 -->
<svg width="763pt" height="727pt"
 viewBox="0.00 0.00 763.00 727.00" xmlns="http://www.w3.org/2000/svg" xmlns:xlink="http://www.w3.org/1999/xlink">
<g id="graph0" class="graph" transform="scale(1 1) rotate(0) translate(4 723)">
<title>controllers_diagram</title>
<polygon fill="white" stroke="none" points="-4,4 -4,-723 759,-723 759,4 -4,4"/>
<!-- _diagram_info -->
<g id="node1" class="node"><title>_diagram_info</title>
<text text-anchor="start" x="468" y="-63.6" font-family="Times,serif" font-size="13.00">Controllers diagram</text>
<text text-anchor="start" x="468" y="-49.6" font-family="Times,serif" font-size="13.00">Date: Apr 26 2015 &#45; 15:52</text>
<text text-anchor="start" x="468" y="-35.6" font-family="Times,serif" font-size="13.00">Migration version: 20150421041215</text>
<text text-anchor="start" x="468" y="-21.6" font-family="Times,serif" font-size="13.00">Generated by RailRoady 1.3.0</text>
<text text-anchor="start" x="468" y="-7.6" font-family="Times,serif" font-size="13.00">http://railroady.prestonlee.com</text>
</g>
<!-- AdminController -->
<g id="node2" class="node"><title>AdminController</title>
<path fill="none" stroke="black" d="M472,-115.5C472,-115.5 651,-115.5 651,-115.5 657,-115.5 663,-121.5 663,-127.5 663,-127.5 663,-436.5 663,-436.5 663,-442.5 657,-448.5 651,-448.5 651,-448.5 472,-448.5 472,-448.5 466,-448.5 460,-442.5 460,-436.5 460,-436.5 460,-127.5 460,-127.5 460,-121.5 466,-115.5 472,-115.5"/>
<text text-anchor="middle" x="561.5" y="-433.3" font-family="Times,serif" font-size="14.00">AdminController</text>
<polyline fill="none" stroke="black" points="460,-425.5 663,-425.5 "/>
<text text-anchor="start" x="468" y="-410.3" font-family="Times,serif" font-size="14.00">_one_time_conditions_valid_76?</text>
<text text-anchor="start" x="468" y="-395.3" font-family="Times,serif" font-size="14.00">_one_time_conditions_valid_78?</text>
<text text-anchor="start" x="468" y="-380.3" font-family="Times,serif" font-size="14.00">_one_time_conditions_valid_80?</text>
<text text-anchor="start" x="468" y="-365.3" font-family="Times,serif" font-size="14.00">accounting</text>
<text text-anchor="start" x="468" y="-350.3" font-family="Times,serif" font-size="14.00">approve_or_deny</text>
<text text-anchor="start" x="468" y="-335.3" font-family="Times,serif" font-size="14.00">audit</text>
<text text-anchor="start" x="468" y="-320.3" font-family="Times,serif" font-size="14.00">generate_accounting_sheet</text>
<text text-anchor="start" x="468" y="-305.3" font-family="Times,serif" font-size="14.00">generate_forms</text>
<text text-anchor="start" x="468" y="-290.3" font-family="Times,serif" font-size="14.00">generate_pdf</text>
<text text-anchor="start" x="468" y="-275.3" font-family="Times,serif" font-size="14.00">get_date</text>
<text text-anchor="start" x="468" y="-260.3" font-family="Times,serif" font-size="14.00">index</text>
<text text-anchor="start" x="468" y="-245.3" font-family="Times,serif" font-size="14.00">navigate_months</text>
<text text-anchor="start" x="468" y="-230.3" font-family="Times,serif" font-size="14.00">pending</text>
<text text-anchor="start" x="468" y="-215.3" font-family="Times,serif" font-size="14.00">render_html</text>
<text text-anchor="start" x="468" y="-200.3" font-family="Times,serif" font-size="14.00">sort</text>
<text text-anchor="start" x="468" y="-185.3" font-family="Times,serif" font-size="14.00">update_pending</text>
<polyline fill="none" stroke="black" points="460,-177.5 663,-177.5 "/>
<polyline fill="none" stroke="black" points="460,-153.5 663,-153.5 "/>
<text text-anchor="start" x="468" y="-138.3" font-family="Times,serif" font-size="14.00">_layout</text>
<text text-anchor="start" x="468" y="-123.3" font-family="Times,serif" font-size="14.00">check_admin</text>
</g>
<!-- ApplicationController -->
<g id="node3" class="node"><title>ApplicationController</title>
<path fill="none" stroke="black" d="M564,-483.5C564,-483.5 743,-483.5 743,-483.5 749,-483.5 755,-489.5 755,-495.5 755,-495.5 755,-594.5 755,-594.5 755,-600.5 749,-606.5 743,-606.5 743,-606.5 564,-606.5 564,-606.5 558,-606.5 552,-600.5 552,-594.5 552,-594.5 552,-495.5 552,-495.5 552,-489.5 558,-483.5 564,-483.5"/>
<text text-anchor="middle" x="653.5" y="-591.3" font-family="Times,serif" font-size="14.00">ApplicationController</text>
<polyline fill="none" stroke="black" points="552,-583.5 755,-583.5 "/>
<text text-anchor="start" x="560" y="-568.3" font-family="Times,serif" font-size="14.00">_one_time_conditions_valid_74?</text>
<polyline fill="none" stroke="black" points="552,-560.5 755,-560.5 "/>
<polyline fill="none" stroke="black" points="552,-536.5 755,-536.5 "/>
<text text-anchor="start" x="560" y="-521.3" font-family="Times,serif" font-size="14.00">_layout</text>
<text text-anchor="start" x="560" y="-506.3" font-family="Times,serif" font-size="14.00">check_logged_in</text>
<text text-anchor="start" x="560" y="-491.3" font-family="Times,serif" font-size="14.00">force_password_change</text>
</g>
<!-- DaysController -->
<g id="node4" class="node"><title>DaysController</title>
<path fill="none" stroke="black" d="M219,-46.5C219,-46.5 405,-46.5 405,-46.5 411,-46.5 417,-52.5 417,-58.5 417,-58.5 417,-412.5 417,-412.5 417,-418.5 411,-424.5 405,-424.5 405,-424.5 219,-424.5 219,-424.5 213,-424.5 207,-418.5 207,-412.5 207,-412.5 207,-58.5 207,-58.5 207,-52.5 213,-46.5 219,-46.5"/>
<text text-anchor="middle" x="312" y="-409.3" font-family="Times,serif" font-size="14.00">DaysController</text>
<polyline fill="none" stroke="black" points="207,-401.5 417,-401.5 "/>
<text text-anchor="start" x="215" y="-386.3" font-family="Times,serif" font-size="14.00">_one_time_conditions_valid_104?</text>
<text text-anchor="start" x="215" y="-371.3" font-family="Times,serif" font-size="14.00">_one_time_conditions_valid_106?</text>
<text text-anchor="start" x="215" y="-356.3" font-family="Times,serif" font-size="14.00">add</text>
<text text-anchor="start" x="215" y="-341.3" font-family="Times,serif" font-size="14.00">add_days</text>
<text text-anchor="start" x="215" y="-326.3" font-family="Times,serif" font-size="14.00">add_today</text>
<text text-anchor="start" x="215" y="-311.3" font-family="Times,serif" font-size="14.00">bad_captcha</text>
<text text-anchor="start" x="215" y="-296.3" font-family="Times,serif" font-size="14.00">check_date_already_input</text>
<text text-anchor="start" x="215" y="-281.3" font-family="Times,serif" font-size="14.00">check_day</text>
<text text-anchor="start" x="215" y="-266.3" font-family="Times,serif" font-size="14.00">check_simple_captcha</text>
<text text-anchor="start" x="215" y="-251.3" font-family="Times,serif" font-size="14.00">create_past_days</text>
<text text-anchor="start" x="215" y="-236.3" font-family="Times,serif" font-size="14.00">create_single_day</text>
<text text-anchor="start" x="215" y="-221.3" font-family="Times,serif" font-size="14.00">empty_fields_notice</text>
<text text-anchor="start" x="215" y="-206.3" font-family="Times,serif" font-size="14.00">past_days</text>
<text text-anchor="start" x="215" y="-191.3" font-family="Times,serif" font-size="14.00">restful_redirect</text>
<text text-anchor="start" x="215" y="-176.3" font-family="Times,serif" font-size="14.00">save_past_days</text>
<text text-anchor="start" x="215" y="-161.3" font-family="Times,serif" font-size="14.00">today</text>
<text text-anchor="start" x="215" y="-146.3" font-family="Times,serif" font-size="14.00">update_month</text>
<text text-anchor="start" x="215" y="-131.3" font-family="Times,serif" font-size="14.00">validate_model</text>
<text text-anchor="start" x="215" y="-116.3" font-family="Times,serif" font-size="14.00">validate_single_day</text>
<text text-anchor="start" x="215" y="-101.3" font-family="Times,serif" font-size="14.00">validate_single_day_activities</text>
<polyline fill="none" stroke="black" points="207,-93.5 417,-93.5 "/>
<polyline fill="none" stroke="black" points="207,-69.5 417,-69.5 "/>
<text text-anchor="start" x="215" y="-54.3" font-family="Times,serif" font-size="14.00">_layout</text>
</g>
<!-- InvitationsController -->
<g id="node5" class="node"><title>InvitationsController</title>
<path fill="none" stroke="black" d="M35,-437.5C35,-437.5 145,-437.5 145,-437.5 151,-437.5 157,-443.5 157,-449.5 157,-449.5 157,-518.5 157,-518.5 157,-524.5 151,-530.5 145,-530.5 145,-530.5 35,-530.5 35,-530.5 29,-530.5 23,-524.5 23,-518.5 23,-518.5 23,-449.5 23,-449.5 23,-443.5 29,-437.5 35,-437.5"/>
<text text-anchor="middle" x="90" y="-515.3" font-family="Times,serif" font-size="14.00">InvitationsController</text>
<polyline fill="none" stroke="black" points="23,-507.5 157,-507.5 "/>
<text text-anchor="start" x="31" y="-492.3" font-family="Times,serif" font-size="14.00">new</text>
<polyline fill="none" stroke="black" points="23,-484.5 157,-484.5 "/>
<polyline fill="none" stroke="black" points="23,-460.5 157,-460.5 "/>
<text text-anchor="start" x="31" y="-445.3" font-family="Times,serif" font-size="14.00">_layout</text>
</g>
<!-- RegistrationsController -->
<g id="node6" class="node"><title>RegistrationsController</title>
<path fill="none" stroke="black" d="M12,-575.5C12,-575.5 151,-575.5 151,-575.5 157,-575.5 163,-581.5 163,-587.5 163,-587.5 163,-671.5 163,-671.5 163,-677.5 157,-683.5 151,-683.5 151,-683.5 12,-683.5 12,-683.5 6,-683.5 0,-677.5 0,-671.5 0,-671.5 0,-587.5 0,-587.5 0,-581.5 6,-575.5 12,-575.5"/>
<text text-anchor="middle" x="81.5" y="-668.3" font-family="Times,serif" font-size="14.00">RegistrationsController</text>
<polyline fill="none" stroke="black" points="0,-660.5 163,-660.5 "/>
<text text-anchor="start" x="8" y="-645.3" font-family="Times,serif" font-size="14.00">new_password_provided?</text>
<text text-anchor="start" x="8" y="-630.3" font-family="Times,serif" font-size="14.00">update</text>
<polyline fill="none" stroke="black" points="0,-622.5 163,-622.5 "/>
<polyline fill="none" stroke="black" points="0,-598.5 163,-598.5 "/>
<text text-anchor="start" x="8" y="-583.3" font-family="Times,serif" font-size="14.00">_layout</text>
</g>
<!-- UsersController -->
<g id="node7" class="node"><title>UsersController</title>
<path fill="none" stroke="black" d="M219,-460.5C219,-460.5 405,-460.5 405,-460.5 411,-460.5 417,-466.5 417,-472.5 417,-472.5 417,-706.5 417,-706.5 417,-712.5 411,-718.5 405,-718.5 405,-718.5 219,-718.5 219,-718.5 213,-718.5 207,-712.5 207,-706.5 207,-706.5 207,-472.5 207,-472.5 207,-466.5 213,-460.5 219,-460.5"/>
<text text-anchor="middle" x="312" y="-703.3" font-family="Times,serif" font-size="14.00">UsersController</text>
<polyline fill="none" stroke="black" points="207,-695.5 417,-695.5 "/>
<text text-anchor="start" x="215" y="-680.3" font-family="Times,serif" font-size="14.00">_one_time_conditions_valid_134?</text>
<text text-anchor="start" x="215" y="-665.3" font-family="Times,serif" font-size="14.00">_one_time_conditions_valid_136?</text>
<text text-anchor="start" x="215" y="-650.3" font-family="Times,serif" font-size="14.00">calendar</text>
<text text-anchor="start" x="215" y="-635.3" font-family="Times,serif" font-size="14.00">destroy</text>
<text text-anchor="start" x="215" y="-620.3" font-family="Times,serif" font-size="14.00">get_all_workouts</text>
<text text-anchor="start" x="215" y="-605.3" font-family="Times,serif" font-size="14.00">get_money_earned</text>
<text text-anchor="start" x="215" y="-590.3" font-family="Times,serif" font-size="14.00">manage</text>
<text text-anchor="start" x="215" y="-575.3" font-family="Times,serif" font-size="14.00">num_of_months_to_retrieve</text>
<text text-anchor="start" x="215" y="-560.3" font-family="Times,serif" font-size="14.00">retrieve_workout</text>
<text text-anchor="start" x="215" y="-545.3" font-family="Times,serif" font-size="14.00">retrieve_workouts</text>
<text text-anchor="start" x="215" y="-530.3" font-family="Times,serif" font-size="14.00">set_name</text>
<polyline fill="none" stroke="black" points="207,-522.5 417,-522.5 "/>
<polyline fill="none" stroke="black" points="207,-498.5 417,-498.5 "/>
<text text-anchor="start" x="215" y="-483.3" font-family="Times,serif" font-size="14.00">_layout</text>
<text text-anchor="start" x="215" y="-468.3" font-family="Times,serif" font-size="14.00">check_logged_in</text>
</g>
</g>
</svg>
