<?xml version="1.0" encoding="UTF-8" standalone="no"?>
<!DOCTYPE svg PUBLIC "-//W3C//DTD SVG 1.1//EN"
 "http://www.w3.org/Graphics/SVG/1.1/DTD/svg11.dtd">
<!-- Generated by graphviz version 2.36.0 (20140111.2315)
 -->
<!-- Title: models_diagram Pages: 1 -->
<svg width="592pt" height="1012pt"
 viewBox="0.00 0.00 592.00 1012.00" xmlns="http://www.w3.org/2000/svg" xmlns:xlink="http://www.w3.org/1999/xlink">
<g id="graph0" class="graph" transform="scale(1 1) rotate(0) translate(4 1008)">
<title>models_diagram</title>
<polygon fill="white" stroke="none" points="-4,4 -4,-1008 588,-1008 588,4 -4,4"/>
<!-- _diagram_info -->
<g id="node1" class="node"><title>_diagram_info</title>
<text text-anchor="start" x="8" y="-824.6" font-family="Times,serif" font-size="13.00">Models diagram</text>
<text text-anchor="start" x="8" y="-810.6" font-family="Times,serif" font-size="13.00">Date: Apr 26 2015 &#45; 15:52</text>
<text text-anchor="start" x="8" y="-796.6" font-family="Times,serif" font-size="13.00">Migration version: 20150421041215</text>
<text text-anchor="start" x="8" y="-782.6" font-family="Times,serif" font-size="13.00">Generated by RailRoady 1.3.0</text>
<text text-anchor="start" x="8" y="-768.6" font-family="Times,serif" font-size="13.00">http://railroady.prestonlee.com</text>
</g>
<!-- Activity -->
<g id="node2" class="node"><title>Activity</title>
<path fill="none" stroke="black" d="M273,-1C273,-1 383,-1 383,-1 389,-1 395,-7 395,-13 395,-13 395,-125 395,-125 395,-131 389,-137 383,-137 383,-137 273,-137 273,-137 267,-137 261,-131 261,-125 261,-125 261,-13 261,-13 261,-7 267,-1 273,-1"/>
<text text-anchor="middle" x="328" y="-121.8" font-family="Times,serif" font-size="14.00">Activity</text>
<polyline fill="none" stroke="black" points="261,-114 395,-114 "/>
<text text-anchor="start" x="269" y="-98.8" font-family="Times,serif" font-size="14.00">id :integer</text>
<text text-anchor="start" x="269" y="-83.8" font-family="Times,serif" font-size="14.00">name :string</text>
<text text-anchor="start" x="269" y="-68.8" font-family="Times,serif" font-size="14.00">duration :integer</text>
<text text-anchor="start" x="269" y="-53.8" font-family="Times,serif" font-size="14.00">created_at :datetime</text>
<text text-anchor="start" x="269" y="-38.8" font-family="Times,serif" font-size="14.00">updated_at :datetime</text>
<text text-anchor="start" x="269" y="-23.8" font-family="Times,serif" font-size="14.00">day_id :integer</text>
<text text-anchor="start" x="269" y="-8.8" font-family="Times,serif" font-size="14.00">user :string</text>
</g>
<!-- Constant -->
<g id="node3" class="node"><title>Constant</title>
<path fill="none" stroke="black" d="M462,-754.5C462,-754.5 572,-754.5 572,-754.5 578,-754.5 584,-760.5 584,-766.5 584,-766.5 584,-833.5 584,-833.5 584,-839.5 578,-845.5 572,-845.5 572,-845.5 462,-845.5 462,-845.5 456,-845.5 450,-839.5 450,-833.5 450,-833.5 450,-766.5 450,-766.5 450,-760.5 456,-754.5 462,-754.5"/>
<text text-anchor="middle" x="517" y="-830.3" font-family="Times,serif" font-size="14.00">Constant</text>
<polyline fill="none" stroke="black" points="450,-822.5 584,-822.5 "/>
<text text-anchor="start" x="458" y="-807.3" font-family="Times,serif" font-size="14.00">id :integer</text>
<text text-anchor="start" x="458" y="-792.3" font-family="Times,serif" font-size="14.00">curr_rate :integer</text>
<text text-anchor="start" x="458" y="-777.3" font-family="Times,serif" font-size="14.00">created_at :datetime</text>
<text text-anchor="start" x="458" y="-762.3" font-family="Times,serif" font-size="14.00">updated_at :datetime</text>
</g>
<!-- Day -->
<g id="node4" class="node"><title>Day</title>
<path fill="none" stroke="black" d="M273,-175C273,-175 383,-175 383,-175 389,-175 395,-181 395,-187 395,-187 395,-329 395,-329 395,-335 389,-341 383,-341 383,-341 273,-341 273,-341 267,-341 261,-335 261,-329 261,-329 261,-187 261,-187 261,-181 267,-175 273,-175"/>
<text text-anchor="middle" x="328" y="-325.8" font-family="Times,serif" font-size="14.00">Day</text>
<polyline fill="none" stroke="black" points="261,-318 395,-318 "/>
<text text-anchor="start" x="269" y="-302.8" font-family="Times,serif" font-size="14.00">id :integer</text>
<text text-anchor="start" x="269" y="-287.8" font-family="Times,serif" font-size="14.00">date :datetime</text>
<text text-anchor="start" x="269" y="-272.8" font-family="Times,serif" font-size="14.00">created_at :datetime</text>
<text text-anchor="start" x="269" y="-257.8" font-family="Times,serif" font-size="14.00">updated_at :datetime</text>
<text text-anchor="start" x="269" y="-242.8" font-family="Times,serif" font-size="14.00">total_time :integer</text>
<text text-anchor="start" x="269" y="-227.8" font-family="Times,serif" font-size="14.00">approved :boolean</text>
<text text-anchor="start" x="269" y="-212.8" font-family="Times,serif" font-size="14.00">reason :text</text>
<text text-anchor="start" x="269" y="-197.8" font-family="Times,serif" font-size="14.00">month_id :integer</text>
<text text-anchor="start" x="269" y="-182.8" font-family="Times,serif" font-size="14.00">denied :boolean</text>
</g>
<!-- Day&#45;&gt;Activity -->
<g id="edge1" class="edge"><title>Day&#45;&gt;Activity</title>
<path fill="none" stroke="#8b7028" d="M328,-166.939C328,-160.343 328,-153.725 328,-147.215"/>
<ellipse fill="none" stroke="#8b7028" cx="328" cy="-170.979" rx="4" ry="4"/>
<polygon fill="#8b7028" stroke="#8b7028" points="328,-147.093 332.5,-137.093 328,-142.093 328,-137.093 328,-137.093 328,-137.093 328,-142.093 323.5,-137.093 328,-147.093 328,-147.093"/>
</g>
<!-- Month -->
<g id="node5" class="node"><title>Month</title>
<path fill="none" stroke="black" d="M317,-378.5C317,-378.5 443,-378.5 443,-378.5 449,-378.5 455,-384.5 455,-390.5 455,-390.5 455,-547.5 455,-547.5 455,-553.5 449,-559.5 443,-559.5 443,-559.5 317,-559.5 317,-559.5 311,-559.5 305,-553.5 305,-547.5 305,-547.5 305,-390.5 305,-390.5 305,-384.5 311,-378.5 317,-378.5"/>
<text text-anchor="middle" x="380" y="-544.3" font-family="Times,serif" font-size="14.00">Month</text>
<polyline fill="none" stroke="black" points="305,-536.5 455,-536.5 "/>
<text text-anchor="start" x="313" y="-521.3" font-family="Times,serif" font-size="14.00">id :integer</text>
<text text-anchor="start" x="313" y="-506.3" font-family="Times,serif" font-size="14.00">user_id :integer</text>
<text text-anchor="start" x="313" y="-491.3" font-family="Times,serif" font-size="14.00">month :integer</text>
<text text-anchor="start" x="313" y="-476.3" font-family="Times,serif" font-size="14.00">year :integer</text>
<text text-anchor="start" x="313" y="-461.3" font-family="Times,serif" font-size="14.00">printed_form :boolean</text>
<text text-anchor="start" x="313" y="-446.3" font-family="Times,serif" font-size="14.00">received_form :boolean</text>
<text text-anchor="start" x="313" y="-431.3" font-family="Times,serif" font-size="14.00">num_of_days :integer</text>
<text text-anchor="start" x="313" y="-416.3" font-family="Times,serif" font-size="14.00">created_at :datetime</text>
<text text-anchor="start" x="313" y="-401.3" font-family="Times,serif" font-size="14.00">updated_at :datetime</text>
<text text-anchor="start" x="313" y="-386.3" font-family="Times,serif" font-size="14.00">work_rate :integer</text>
</g>
<!-- Month&#45;&gt;Day -->
<g id="edge2" class="edge"><title>Month&#45;&gt;Day</title>
<path fill="none" stroke="#2e34a0" d="M355.759,-370.572C354.149,-364.1 352.53,-357.592 350.927,-351.147"/>
<ellipse fill="none" stroke="#2e34a0" cx="356.755" cy="-374.574" rx="4.00001" ry="4.00001"/>
<polygon fill="#2e34a0" stroke="#2e34a0" points="350.838,-350.791 352.79,-340 349.631,-345.939 348.424,-341.087 348.424,-341.087 348.424,-341.087 349.631,-345.939 344.057,-342.173 350.838,-350.791 350.838,-350.791"/>
</g>
<!-- User -->
<g id="node6" class="node"><title>User</title>
<path fill="none" stroke="black" d="M238.5,-597C238.5,-597 419.5,-597 419.5,-597 425.5,-597 431.5,-603 431.5,-609 431.5,-609 431.5,-991 431.5,-991 431.5,-997 425.5,-1003 419.5,-1003 419.5,-1003 238.5,-1003 238.5,-1003 232.5,-1003 226.5,-997 226.5,-991 226.5,-991 226.5,-609 226.5,-609 226.5,-603 232.5,-597 238.5,-597"/>
<text text-anchor="middle" x="329" y="-987.8" font-family="Times,serif" font-size="14.00">User</text>
<polyline fill="none" stroke="black" points="226.5,-980 431.5,-980 "/>
<text text-anchor="start" x="234.5" y="-964.8" font-family="Times,serif" font-size="14.00">id :integer</text>
<text text-anchor="start" x="234.5" y="-949.8" font-family="Times,serif" font-size="14.00">email :string</text>
<text text-anchor="start" x="234.5" y="-934.8" font-family="Times,serif" font-size="14.00">encrypted_password :string</text>
<text text-anchor="start" x="234.5" y="-919.8" font-family="Times,serif" font-size="14.00">reset_password_token :string</text>
<text text-anchor="start" x="234.5" y="-904.8" font-family="Times,serif" font-size="14.00">reset_password_sent_at :datetime</text>
<text text-anchor="start" x="234.5" y="-889.8" font-family="Times,serif" font-size="14.00">remember_created_at :datetime</text>
<text text-anchor="start" x="234.5" y="-874.8" font-family="Times,serif" font-size="14.00">sign_in_count :integer</text>
<text text-anchor="start" x="234.5" y="-859.8" font-family="Times,serif" font-size="14.00">current_sign_in_at :datetime</text>
<text text-anchor="start" x="234.5" y="-844.8" font-family="Times,serif" font-size="14.00">last_sign_in_at :datetime</text>
<text text-anchor="start" x="234.5" y="-829.8" font-family="Times,serif" font-size="14.00">current_sign_in_ip :string</text>
<text text-anchor="start" x="234.5" y="-814.8" font-family="Times,serif" font-size="14.00">last_sign_in_ip :string</text>
<text text-anchor="start" x="234.5" y="-799.8" font-family="Times,serif" font-size="14.00">created_at :datetime</text>
<text text-anchor="start" x="234.5" y="-784.8" font-family="Times,serif" font-size="14.00">updated_at :datetime</text>
<text text-anchor="start" x="234.5" y="-769.8" font-family="Times,serif" font-size="14.00">invitation_token :string</text>
<text text-anchor="start" x="234.5" y="-754.8" font-family="Times,serif" font-size="14.00">invitation_created_at :datetime</text>
<text text-anchor="start" x="234.5" y="-739.8" font-family="Times,serif" font-size="14.00">invitation_sent_at :datetime</text>
<text text-anchor="start" x="234.5" y="-724.8" font-family="Times,serif" font-size="14.00">invitation_accepted_at :datetime</text>
<text text-anchor="start" x="234.5" y="-709.8" font-family="Times,serif" font-size="14.00">invitation_limit :integer</text>
<text text-anchor="start" x="234.5" y="-694.8" font-family="Times,serif" font-size="14.00">invited_by_id :integer</text>
<text text-anchor="start" x="234.5" y="-679.8" font-family="Times,serif" font-size="14.00">invited_by_type :string</text>
<text text-anchor="start" x="234.5" y="-664.8" font-family="Times,serif" font-size="14.00">invitations_count :integer</text>
<text text-anchor="start" x="234.5" y="-649.8" font-family="Times,serif" font-size="14.00">first_name :string</text>
<text text-anchor="start" x="234.5" y="-634.8" font-family="Times,serif" font-size="14.00">last_name :string</text>
<text text-anchor="start" x="234.5" y="-619.8" font-family="Times,serif" font-size="14.00">admin :boolean</text>
<text text-anchor="start" x="234.5" y="-604.8" font-family="Times,serif" font-size="14.00">password_changed :boolean</text>
</g>
<!-- User&#45;&gt;Day -->
<g id="edge4" class="edge"><title>User&#45;&gt;Day</title>
<path fill="none" stroke="#7b77ee" d="M295.059,-586.732C288.988,-519.792 287.061,-445.665 296,-378 297.173,-369.122 298.818,-359.966 300.749,-350.859"/>
<polygon fill="#7b77ee" stroke="#7b77ee" points="295.087,-587.027 291.546,-597.405 295.556,-592.005 296.026,-596.983 296.026,-596.983 296.026,-596.983 295.556,-592.005 300.506,-596.56 295.087,-587.027 295.087,-587.027"/>
<polygon fill="#7b77ee" stroke="#7b77ee" points="300.768,-350.773 307.34,-341.994 301.858,-345.893 302.948,-341.013 302.948,-341.013 302.948,-341.013 301.858,-345.893 298.556,-340.032 300.768,-350.773 300.768,-350.773"/>
</g>
<!-- User&#45;&gt;Month -->
<g id="edge3" class="edge"><title>User&#45;&gt;Month</title>
<path fill="none" stroke="#e98f21" d="M361.597,-588.718C362.583,-582.358 363.553,-576.097 364.502,-569.977"/>
<ellipse fill="none" stroke="#e98f21" cx="360.968" cy="-592.777" rx="4.00001" ry="4.00001"/>
<polygon fill="#e98f21" stroke="#e98f21" points="364.545,-569.701 370.524,-560.509 365.311,-564.76 366.077,-559.819 366.077,-559.819 366.077,-559.819 365.311,-564.76 361.63,-559.13 364.545,-569.701 364.545,-569.701"/>
</g>
</g>
</svg>
