<?xml version="1.0" encoding="UTF-8" standalone="no"?>
<!DOCTYPE svg PUBLIC "-//W3C//DTD SVG 1.1//EN"
 "http://www.w3.org/Graphics/SVG/1.1/DTD/svg11.dtd">
<!-- Generated by graphviz version 2.36.0 (20140111.2315)
 -->
<!-- Title: models_diagram Pages: 1 -->
<svg width="393pt" height="302pt"
 viewBox="0.00 0.00 393.00 302.00" xmlns="http://www.w3.org/2000/svg" xmlns:xlink="http://www.w3.org/1999/xlink">
<g id="graph0" class="graph" transform="scale(1 1) rotate(0) translate(4 298)">
<title>models_diagram</title>
<polygon fill="white" stroke="none" points="-4,4 -4,-298 389,-298 389,4 -4,4"/>
<!-- _diagram_info -->
<g id="node1" class="node"><title>_diagram_info</title>
<text text-anchor="start" x="8" y="-279.6" font-family="Times,serif" font-size="13.00">Models diagram</text>
<text text-anchor="start" x="8" y="-265.6" font-family="Times,serif" font-size="13.00">Date: Apr 26 2015 &#45; 15:52</text>
<text text-anchor="start" x="8" y="-251.6" font-family="Times,serif" font-size="13.00">Migration version: 20150421041215</text>
<text text-anchor="start" x="8" y="-237.6" font-family="Times,serif" font-size="13.00">Generated by RailRoady 1.3.0</text>
<text text-anchor="start" x="8" y="-223.6" font-family="Times,serif" font-size="13.00">http://railroady.prestonlee.com</text>
</g>
<!-- Activity -->
<g id="node2" class="node"><title>Activity</title>
<ellipse fill="none" stroke="black" cx="253" cy="-18" rx="39.9464" ry="18"/>
<text text-anchor="middle" x="253" y="-14.3" font-family="Times,serif" font-size="14.00">Activity</text>
</g>
<!-- Constant -->
<g id="node3" class="node"><title>Constant</title>
<ellipse fill="none" stroke="black" cx="343" cy="-255" rx="42.3456" ry="18"/>
<text text-anchor="middle" x="343" y="-251.3" font-family="Times,serif" font-size="14.00">Constant</text>
</g>
<!-- Day -->
<g id="node4" class="node"><title>Day</title>
<ellipse fill="none" stroke="black" cx="253" cy="-90" rx="27" ry="18"/>
<text text-anchor="middle" x="253" y="-86.3" font-family="Times,serif" font-size="14.00">Day</text>
</g>
<!-- Day&#45;&gt;Activity -->
<g id="edge1" class="edge"><title>Day&#45;&gt;Activity</title>
<path fill="none" stroke="#17a4c5" d="M253,-63.6398C253,-58.0629 253,-52.1319 253,-46.4761"/>
<ellipse fill="none" stroke="#17a4c5" cx="253" cy="-67.6966" rx="4" ry="4"/>
<polygon fill="#17a4c5" stroke="#17a4c5" points="253,-46.1043 257.5,-36.1043 253,-41.1043 253,-36.1043 253,-36.1043 253,-36.1043 253,-41.1043 248.5,-36.1044 253,-46.1043 253,-46.1043"/>
</g>
<!-- Month -->
<g id="node5" class="node"><title>Month</title>
<ellipse fill="none" stroke="black" cx="285" cy="-162" rx="35.1455" ry="18"/>
<text text-anchor="middle" x="285" y="-158.3" font-family="Times,serif" font-size="14.00">Month</text>
</g>
<!-- Month&#45;&gt;Day -->
<g id="edge2" class="edge"><title>Month&#45;&gt;Day</title>
<path fill="none" stroke="#be5d94" d="M274.006,-136.95C271.02,-130.418 267.776,-123.322 264.75,-116.703"/>
<ellipse fill="none" stroke="#be5d94" cx="275.753" cy="-140.773" rx="4.00002" ry="4.00002"/>
<polygon fill="#be5d94" stroke="#be5d94" points="264.687,-116.565 264.622,-105.599 262.608,-112.017 260.529,-107.47 260.529,-107.47 260.529,-107.47 262.608,-112.017 256.436,-109.341 264.687,-116.565 264.687,-116.565"/>
</g>
<!-- User -->
<g id="node6" class="node"><title>User</title>
<ellipse fill="none" stroke="black" cx="254" cy="-255" rx="27.4223" ry="18"/>
<text text-anchor="middle" x="254" y="-251.3" font-family="Times,serif" font-size="14.00">User</text>
</g>
<!-- User&#45;&gt;Day -->
<g id="edge4" class="edge"><title>User&#45;&gt;Day</title>
<path fill="none" stroke="#660a86" d="M247.305,-226.803C242.665,-204.548 237.842,-172.249 241,-144 241.958,-135.43 243.762,-126.223 245.685,-117.926"/>
<polygon fill="#660a86" stroke="#660a86" points="247.37,-227.096 245.139,-237.833 248.451,-231.978 249.533,-236.86 249.533,-236.86 249.533,-236.86 248.451,-231.978 253.926,-235.886 247.37,-227.096 247.37,-227.096"/>
<polygon fill="#660a86" stroke="#660a86" points="245.734,-117.729 252.5,-109.1 246.932,-112.875 248.131,-108.021 248.131,-108.021 248.131,-108.021 246.932,-112.875 243.762,-106.942 245.734,-117.729 245.734,-117.729"/>
</g>
<!-- User&#45;&gt;Month -->
<g id="edge3" class="edge"><title>User&#45;&gt;Month</title>
<path fill="none" stroke="#a83a4f" d="M262.332,-229.543C266.553,-217.152 271.684,-202.09 275.996,-189.432"/>
<ellipse fill="none" stroke="#a83a4f" cx="260.976" cy="-233.523" rx="4.00001" ry="4.00001"/>
<polygon fill="#a83a4f" stroke="#a83a4f" points="276.02,-189.359 283.505,-181.344 277.633,-184.626 279.245,-179.893 279.245,-179.893 279.245,-179.893 277.633,-184.626 274.986,-178.442 276.02,-189.359 276.02,-189.359"/>
</g>
</g>
</svg>
